<svg width="12" height="10" viewBox="0 0 12 10" fill="none" xmlns="http://www.w3.org/2000/svg">
<path d="M11.8082 4.57968L7.47457 0.672739C7.35087 0.561215 7.18599 0.5 7.01019 0.5C6.83419 0.5 6.66941 0.561303 6.5457 0.672739L6.15224 1.02754C6.02863 1.13889 5.96054 1.28761 5.96054 1.44619C5.96054 1.60468 6.02863 1.75842 6.15224 1.86977L8.68042 4.15399H0.648287C0.286144 4.15399 0 4.40957 0 4.73614V5.23774C0 5.5643 0.286144 5.84566 0.648287 5.84566H8.7091L6.15234 8.14263C6.02873 8.25415 5.96063 8.39884 5.96063 8.55741C5.96063 8.71582 6.02873 8.86261 6.15234 8.97404L6.5458 9.3277C6.66951 9.43922 6.83429 9.5 7.01028 9.5C7.18609 9.5 7.35096 9.43843 7.47467 9.32691L11.8083 5.42006C11.9323 5.30819 12.0005 5.15884 12 5.00009C12.0004 4.84081 11.9323 4.69138 11.8082 4.57968Z" fill="black"/>
</svg>
